<svg width="239" height="40" viewBox="0 0 239 40" fill="none" xmlns="http://www.w3.org/2000/svg">
<path d="M34.1422 5.85781C30.3647 2.08031 25.3422 0 20 0C14.6578 0 9.63531 2.08031 5.85781 5.85781C2.08031 9.63531 0 14.6578 0 20C0 25.3422 2.08039 30.3646 5.85781 34.1422C9.63523 37.9198 14.6578 40 20 40C25.3422 40 30.3647 37.9197 34.1422 34.1422C37.9197 30.3647 40 25.3422 40 20C40 14.6578 37.9196 9.63539 34.1422 5.85781Z" fill="#33CC95"/>
<g clip-path="url(#clip0_35212_417)">
<path d="M20.5714 8V33.1429" stroke="white" stroke-width="2" stroke-linecap="round" stroke-linejoin="round"/>
<path d="M26.2857 12.5714H17.7143C16.6534 12.5714 15.636 12.9929 14.8859 13.743C14.1357 14.4931 13.7143 15.5106 13.7143 16.5714C13.7143 17.6323 14.1357 18.6497 14.8859 19.3999C15.636 20.15 16.6534 20.5714 17.7143 20.5714H23.4286C24.4894 20.5714 25.5069 20.9929 26.257 21.743C27.0072 22.4932 27.4286 23.5106 27.4286 24.5714C27.4286 25.6323 27.0072 26.6497 26.257 27.3999C25.5069 28.15 24.4894 28.5714 23.4286 28.5714H13.7143" stroke="white" stroke-width="2" stroke-linecap="round" stroke-linejoin="round"/>
</g>
<path d="M71.808 12.56C72.848 12.56 73.776 12.776 74.592 13.208C75.424 13.64 76.072 14.28 76.536 15.128C77.016 15.976 77.256 17 77.256 18.2V26H74.544V18.608C74.544 17.424 74.248 16.52 73.656 15.896C73.064 15.256 72.256 14.936 71.232 14.936C70.208 14.936 69.392 15.256 68.784 15.896C68.192 16.52 67.896 17.424 67.896 18.608V26H65.184V18.608C65.184 17.424 64.888 16.52 64.296 15.896C63.704 15.256 62.896 14.936 61.872 14.936C60.848 14.936 60.032 15.256 59.424 15.896C58.832 16.52 58.536 17.424 58.536 18.608V26H55.8V12.776H58.536V14.288C58.984 13.744 59.552 13.32 60.24 13.016C60.928 12.712 61.664 12.56 62.448 12.56C63.504 12.56 64.448 12.784 65.28 13.232C66.112 13.68 66.752 14.328 67.2 15.176C67.6 14.376 68.224 13.744 69.072 13.28C69.92 12.8 70.832 12.56 71.808 12.56ZM86.4735 26.216C85.2255 26.216 84.0975 25.936 83.0895 25.376C82.0815 24.8 81.2895 24 80.7135 22.976C80.1375 21.936 79.8495 20.736 79.8495 19.376C79.8495 18.032 80.1455 16.84 80.7375 15.8C81.3295 14.76 82.1375 13.96 83.1615 13.4C84.1855 12.84 85.3295 12.56 86.5935 12.56C87.8575 12.56 89.0015 12.84 90.0255 13.4C91.0495 13.96 91.8575 14.76 92.4495 15.8C93.0415 16.84 93.3375 18.032 93.3375 19.376C93.3375 20.72 93.0335 21.912 92.4255 22.952C91.8175 23.992 90.9855 24.8 89.9295 25.376C88.8895 25.936 87.7375 26.216 86.4735 26.216ZM86.4735 23.84C87.1775 23.84 87.8335 23.672 88.4415 23.336C89.0655 23 89.5695 22.496 89.9535 21.824C90.3375 21.152 90.5295 20.336 90.5295 19.376C90.5295 18.416 90.3455 17.608 89.9775 16.952C89.6095 16.28 89.1215 15.776 88.5135 15.44C87.9055 15.104 87.2495 14.936 86.5455 14.936C85.8415 14.936 85.1855 15.104 84.5775 15.44C83.9855 15.776 83.5135 16.28 83.1615 16.952C82.8095 17.608 82.6335 18.416 82.6335 19.376C82.6335 20.8 82.9935 21.904 83.7135 22.688C84.4495 23.456 85.3695 23.84 86.4735 23.84ZM102.714 12.56C103.754 12.56 104.682 12.776 105.498 13.208C106.33 13.64 106.978 14.28 107.442 15.128C107.906 15.976 108.138 17 108.138 18.2V26H105.426V18.608C105.426 17.424 105.13 16.52 104.538 15.896C103.946 15.256 103.138 14.936 102.114 14.936C101.09 14.936 100.274 15.256 99.6662 15.896C99.0742 16.52 98.7782 17.424 98.7782 18.608V26H96.0422V12.776H98.7782V14.288C99.2262 13.744 99.7942 13.32 100.482 13.016C101.186 12.712 101.93 12.56 102.714 12.56ZM123.748 19.064C123.748 19.56 123.716 20.008 123.652 20.408H113.548C113.628 21.464 114.02 22.312 114.724 22.952C115.428 23.592 116.292 23.912 117.316 23.912C118.788 23.912 119.828 23.296 120.436 22.064H123.388C122.988 23.28 122.26 24.28 121.204 25.064C120.164 25.832 118.868 26.216 117.316 26.216C116.052 26.216 114.916 25.936 113.908 25.376C112.916 24.8 112.132 24 111.556 22.976C110.996 21.936 110.716 20.736 110.716 19.376C110.716 18.016 110.988 16.824 111.532 15.8C112.092 14.76 112.868 13.96 113.86 13.4C114.868 12.84 116.02 12.56 117.316 12.56C118.564 12.56 119.676 12.832 120.652 13.376C121.628 13.92 122.388 14.688 122.932 15.68C123.476 16.656 123.748 17.784 123.748 19.064ZM120.892 18.2C120.876 17.192 120.516 16.384 119.812 15.776C119.108 15.168 118.236 14.864 117.196 14.864C116.252 14.864 115.444 15.168 114.772 15.776C114.1 16.368 113.7 17.176 113.572 18.2H120.892ZM138.345 12.776L130.233 32.216H127.401L130.089 25.784L124.881 12.776H127.929L131.649 22.856L135.513 12.776H138.345ZM149.836 15.008V22.328C149.836 22.824 149.948 23.184 150.172 23.408C150.412 23.616 150.812 23.72 151.372 23.72H153.052V26H150.892C149.66 26 148.716 25.712 148.06 25.136C147.404 24.56 147.076 23.624 147.076 22.328V15.008H145.516V12.776H147.076V9.488H149.836V12.776H153.052V15.008H149.836ZM158.309 14.696C158.709 14.024 159.237 13.504 159.893 13.136C160.565 12.752 161.357 12.56 162.269 12.56V15.392H161.573C160.501 15.392 159.685 15.664 159.125 16.208C158.581 16.752 158.309 17.696 158.309 19.04V26H155.573V12.776H158.309V14.696ZM163.872 19.328C163.872 18 164.144 16.824 164.688 15.8C165.248 14.776 166 13.984 166.944 13.424C167.904 12.848 168.96 12.56 170.112 12.56C171.152 12.56 172.056 12.768 172.824 13.184C173.608 13.584 174.232 14.088 174.696 14.696V12.776H177.456V26H174.696V24.032C174.232 24.656 173.6 25.176 172.8 25.592C172 26.008 171.088 26.216 170.064 26.216C168.928 26.216 167.888 25.928 166.944 25.352C166 24.76 165.248 23.944 164.688 22.904C164.144 21.848 163.872 20.656 163.872 19.328ZM174.696 19.376C174.696 18.464 174.504 17.672 174.12 17C173.752 16.328 173.264 15.816 172.656 15.464C172.048 15.112 171.392 14.936 170.688 14.936C169.984 14.936 169.328 15.112 168.72 15.464C168.112 15.8 167.616 16.304 167.232 16.976C166.864 17.632 166.68 18.416 166.68 19.328C166.68 20.24 166.864 21.04 167.232 21.728C167.616 22.416 168.112 22.944 168.72 23.312C169.344 23.664 170 23.84 170.688 23.84C171.392 23.84 172.048 23.664 172.656 23.312C173.264 22.96 173.752 22.448 174.12 21.776C174.504 21.088 174.696 20.288 174.696 19.376ZM180.138 19.376C180.138 18.016 180.41 16.824 180.954 15.8C181.514 14.76 182.282 13.96 183.258 13.4C184.234 12.84 185.354 12.56 186.618 12.56C188.218 12.56 189.538 12.944 190.578 13.712C191.634 14.464 192.346 15.544 192.714 16.952H189.762C189.522 16.296 189.138 15.784 188.61 15.416C188.082 15.048 187.418 14.864 186.618 14.864C185.498 14.864 184.602 15.264 183.93 16.064C183.274 16.848 182.946 17.952 182.946 19.376C182.946 20.8 183.274 21.912 183.93 22.712C184.602 23.512 185.498 23.912 186.618 23.912C188.202 23.912 189.25 23.216 189.762 21.824H192.714C192.33 23.168 191.61 24.24 190.554 25.04C189.498 25.824 188.186 26.216 186.618 26.216C185.354 26.216 184.234 25.936 183.258 25.376C182.282 24.8 181.514 24 180.954 22.976C180.41 21.936 180.138 20.736 180.138 19.376ZM200.673 19.4L206.769 26H203.073L198.177 20.312V26H195.441V8.24H198.177V18.56L202.977 12.776H206.769L200.673 19.4ZM220.85 19.064C220.85 19.56 220.818 20.008 220.754 20.408H210.65C210.73 21.464 211.122 22.312 211.826 22.952C212.53 23.592 213.394 23.912 214.418 23.912C215.89 23.912 216.93 23.296 217.538 22.064H220.49C220.09 23.28 219.362 24.28 218.306 25.064C217.266 25.832 215.97 26.216 214.418 26.216C213.154 26.216 212.018 25.936 211.01 25.376C210.018 24.8 209.234 24 208.658 22.976C208.098 21.936 207.818 20.736 207.818 19.376C207.818 18.016 208.09 16.824 208.634 15.8C209.194 14.76 209.97 13.96 210.962 13.4C211.97 12.84 213.122 12.56 214.418 12.56C215.666 12.56 216.778 12.832 217.754 13.376C218.73 13.92 219.49 14.688 220.034 15.68C220.578 16.656 220.85 17.784 220.85 19.064ZM217.994 18.2C217.978 17.192 217.618 16.384 216.914 15.776C216.21 15.168 215.338 14.864 214.298 14.864C213.354 14.864 212.546 15.168 211.874 15.776C211.202 16.368 210.802 17.176 210.674 18.2H217.994ZM226.278 14.696C226.678 14.024 227.206 13.504 227.862 13.136C228.534 12.752 229.326 12.56 230.238 12.56V15.392H229.542C228.47 15.392 227.654 15.664 227.094 16.208C226.55 16.752 226.278 17.696 226.278 19.04V26H223.542V12.776H226.278V14.696Z" fill="white"/>
<defs>
<clipPath id="clip0_35212_417">
<rect width="27.4286" height="27.4286" fill="white" transform="translate(6.85715 6.85714)"/>
</clipPath>
</defs>
</svg>
